<?xml version="1.0" standalone="no"?>
<!DOCTYPE svg PUBLIC "-//W3C//DTD SVG 20010904//EN"
 "http://www.w3.org/TR/2001/REC-SVG-20010904/DTD/svg10.dtd">
<svg version="1.0" xmlns="http://www.w3.org/2000/svg"
 width="1536.000000pt" height="1024.000000pt" viewBox="0 0 1536.000000 1024.000000"
 preserveAspectRatio="xMidYMid meet">

<g transform="translate(0.000000,1024.000000) scale(0.100000,-0.100000)"
fill="#000000" stroke="none">
<path d="M7140 8634 c-221 -26 -359 -59 -515 -121 -269 -108 -531 -295 -732
-523 -77 -89 -90 -99 -112 -93 -57 15 -385 7 -486 -11 -611 -109 -1163 -581
-1389 -1189 -111 -298 -136 -657 -70 -987 63 -312 256 -643 495 -851 245 -212
474 -301 777 -303 135 -1 143 -2 147 -21 30 -151 72 -579 81 -822 l7 -191 -58
-27 c-109 -52 -164 -121 -191 -241 -21 -96 -31 -572 -15 -759 22 -260 62 -360
183 -456 151 -119 676 -240 1298 -299 929 -88 1907 -75 2655 36 537 80 796
174 901 327 82 120 105 244 111 614 10 551 -33 673 -275 772 l-67 28 3 84 c12
371 22 697 22 762 l0 77 29 0 c88 0 282 54 419 116 519 237 867 867 839 1521
-29 674 -475 1312 -1139 1628 -294 139 -570 194 -913 182 -88 -3 -189 -11
-225 -17 l-65 -11 -93 100 c-335 360 -759 593 -1195 656 -103 15 -363 27 -427
19z m380 -235 c195 -27 446 -116 628 -223 192 -114 425 -316 564 -491 191
-239 335 -513 372 -705 l12 -65 8 96 c14 181 -25 384 -107 552 l-43 88 25 7
c14 4 127 7 251 7 193 0 241 -4 338 -23 149 -30 273 -71 409 -137 498 -239
854 -677 973 -1200 27 -116 37 -373 21 -500 -64 -482 -325 -879 -696 -1056
-168 -80 -236 -94 -465 -94 -164 1 -211 4 -295 23 -152 34 -247 68 -390 138
-204 101 -405 257 -514 398 l-43 55 42 45 c58 61 83 97 146 202 102 174 156
324 199 564 33 179 31 202 -5 65 -106 -399 -473 -814 -904 -1021 -329 -158
-666 -207 -1016 -148 -512 87 -969 425 -1242 919 -60 110 -87 175 -114 275
-30 115 -30 79 2 -81 54 -281 180 -567 325 -740 21 -26 39 -50 39 -54 0 -16
-95 -128 -157 -185 -139 -128 -291 -220 -454 -274 -147 -49 -217 -59 -382 -53
-165 5 -225 19 -352 81 -115 57 -198 120 -305 232 -247 260 -382 603 -384 974
-1 165 14 280 55 427 76 271 224 520 434 728 252 250 522 395 839 450 80 14
386 22 386 10 0 -2 -15 -39 -34 -82 -71 -162 -105 -308 -112 -468 l-4 -110 16
69 c39 174 161 389 352 622 436 532 977 765 1582 683z m-1282 -3313 c285 -218
620 -335 1016 -352 438 -20 871 110 1172 352 l42 33 26 -39 c48 -73 220 -243
326 -322 127 -95 319 -193 485 -247 112 -36 330 -81 396 -81 25 0 29 -3 25
-22 -3 -13 -8 -131 -11 -263 -6 -260 -22 -585 -28 -591 -2 -2 -55 5 -118 16
-707 119 -2060 157 -3079 85 -372 -26 -748 -70 -952 -111 l-28 -6 0 109 c0
178 -34 616 -65 838 -7 55 -13 100 -12 101 1 0 31 11 67 24 95 33 224 101 310
161 88 62 241 208 312 297 27 34 52 62 55 62 2 0 30 -20 61 -44z m2087 -1555
c814 -56 1448 -161 1607 -266 79 -53 102 -159 102 -475 -1 -359 -39 -570 -102
-570 -9 0 -44 12 -80 26 -201 80 -686 170 -1187 218 -657 64 -1454 72 -2035
21 -475 -43 -969 -136 -1198 -226 -113 -45 -130 -26 -159 183 -22 162 -23 536
0 693 15 109 16 110 56 146 63 56 196 93 556 153 266 45 685 88 1030 105 223
12 1205 6 1410 -8z m-235 -1211 c436 -22 841 -66 1220 -131 185 -32 379 -76
393 -89 9 -8 -96 -38 -223 -65 -949 -199 -2536 -199 -3555 0 -174 34 -345 76
-345 86 0 28 466 116 805 153 206 22 381 37 550 45 226 12 934 12 1155 1z"/>
<path d="M7010 2309 c-475 -20 -960 -79 -1284 -155 -117 -28 -127 -37 -51 -48
l40 -6 -35 15 c-31 13 -32 15 -7 10 17 -4 36 0 45 7 13 11 14 11 8 0 -7 -11
-4 -12 13 -3 11 7 21 8 21 4 0 -5 78 -8 174 -8 113 0 172 4 169 10 -3 6 0 5 7
-2 9 -8 19 -9 32 -2 12 7 18 6 18 -2 0 -7 7 -8 18 -4 9 4 31 9 47 11 29 4 37
4 70 4 67 -1 123 4 138 12 11 6 17 5 17 -2 0 -8 11 -9 31 -5 55 12 64 12 71 2
4 -7 11 -8 20 0 7 5 38 9 68 9 30 -1 58 2 61 6 3 5 34 10 70 12 35 1 75 7 89
13 16 7 27 7 31 1 10 -16 17 -14 33 7 9 12 15 15 16 7 0 -7 4 -10 10 -7 18 11
49 14 55 5 3 -5 12 -7 19 -4 8 3 17 1 21 -5 4 -7 15 -5 33 7 17 11 23 12 18 4
-7 -11 -4 -12 11 -3 11 6 23 7 27 3 4 -3 11 0 16 8 6 8 10 10 10 5 0 -6 9 -11
20 -11 11 0 20 4 20 8 0 4 6 8 14 8 7 0 16 9 19 19 3 13 13 19 30 18 14 -1 23
-6 20 -10 -2 -4 -13 -5 -22 -2 -11 3 -18 0 -18 -8 0 -15 3 -16 60 -20 20 -2
37 0 37 5 0 5 5 6 10 3 6 -3 10 -1 10 4 0 6 -8 11 -17 11 -15 0 -16 2 -3 9 8
6 18 7 23 4 5 -3 4 3 -1 14 -9 15 -8 20 3 20 10 0 13 -9 11 -28 -3 -30 12 -43
35 -28 11 7 11 9 -3 9 -22 0 -22 9 -3 34 15 20 15 20 15 0 0 -16 2 -17 10 -4
16 25 12 29 -32 33 -34 3 -29 4 20 5 48 2 61 -1 56 -10 -6 -10 -4 -10 8 0 24
20 295 16 327 -5 13 -8 20 -10 17 -4 -5 8 29 12 116 13 l123 2 -150 6 c-199
10 -674 9 -905 -1z m310 -9 c0 -5 -2 -10 -4 -10 -3 0 -8 5 -11 10 -3 6 -1 10
4 10 6 0 11 -4 11 -10z"/>
<path d="M7532 2284 c-17 -18 -15 -24 7 -24 10 0 21 6 24 13 2 7 17 13 33 15
47 4 41 13 -7 11 -25 -1 -50 -8 -57 -15z"/>
<path d="M8133 2293 c26 -2 67 -2 90 0 23 2 2 3 -48 3 -49 0 -68 -1 -42 -3z"/>
<path d="M7700 2281 c0 -5 5 -13 10 -16 6 -3 10 -2 10 4 0 5 -4 13 -10 16 -5
3 -10 2 -10 -4z"/>
<path d="M8297 2283 c18 -2 50 -2 70 0 21 2 7 4 -32 4 -38 0 -55 -2 -38 -4z"/>
<path d="M7600 2271 c0 -5 -8 -12 -17 -14 -15 -4 -15 -5 -2 -6 9 0 22 6 29 14
9 10 9 15 1 15 -6 0 -11 -4 -11 -9z"/>
<path d="M8410 2277 c3 -3 52 -8 110 -12 58 -4 110 -10 115 -13 7 -3 7 -1 0 6
-5 6 -59 14 -120 18 -60 3 -108 4 -105 1z"/>
<path d="M8680 2253 c14 -2 32 -6 40 -9 8 -3 51 -8 95 -11 43 -2 83 -7 87 -9
4 -3 8 -1 8 4 0 8 -67 17 -205 26 -27 2 -39 2 -25 -1z"/>
<path d="M7549 2242 c9 -7 10 -11 2 -15 -7 -4 -8 -5 0 -3 15 2 13 20 -3 24
-10 3 -10 2 1 -6z"/>
<path d="M7431 2224 c0 -11 3 -14 6 -6 3 7 2 16 -1 19 -3 4 -6 -2 -5 -13z"/>
<path d="M7586 2227 c3 -10 9 -15 12 -12 3 3 0 11 -7 18 -10 9 -11 8 -5 -6z"/>
<path d="M8955 2220 c22 -4 79 -13 127 -20 49 -6 86 -15 83 -20 -2 -4 6 -5 19
-3 13 3 61 -2 107 -11 46 -9 125 -23 174 -31 50 -9 114 -22 144 -31 29 -8 55
-13 58 -10 16 16 -641 138 -727 135 -16 -1 -11 -4 15 -9z"/>
<path d="M7225 2210 c-4 -6 3 -10 14 -10 25 0 27 6 6 13 -8 4 -17 2 -20 -3z"/>
</g>
</svg>
