<svg xmlns="http://www.w3.org/2000/svg" width="165" height="46" fill="none"><path fill="#fff" d="M25.734 13.615c.322-.033.654 0 .967.079.927.232 1.556.8 2.033 1.597.38-.04.764-.017 1.136.07a3.14 3.14 0 0 1 1.907 1.377 2.94 2.94 0 0 1 .355 2.287c-.265 1.003-.902 1.525-1.769 2.025.024.616.015 1.235.017 1.85 0 .39.026.796-.012 1.182a1 1 0 0 1-.134.44.8.8 0 0 1-.403.134c-.397.048-.828.016-1.228.015l-2.36-.009c-.838.062-1.727.004-2.571.004-.562 0-1.195.067-1.75.004-.197-.022-.282-.153-.39-.298-.07-1.105-.01-2.247-.01-3.356-.462-.236-.855-.526-1.177-.933a2.9 2.9 0 0 1-.6-2.165 3.12 3.12 0 0 1 1.226-2.042 3.02 3.02 0 0 1 2.248-.573c.113-.196.225-.392.365-.57.54-.689 1.293-1.01 2.15-1.118m.045 1.357c-.527.104-.98.292-1.298.747-.178.255-.34.988-.562 1.1-.293.034-.6-.1-.884-.162-.571-.125-1.216.102-1.57.56-.29.378-.427.898-.35 1.366.07.423.33.778.684 1.02.387.266.818.318 1.085.734.05.963.014 1.943.015 2.908q1.686-.013 3.372-.007l2.746-.006c0-.49-.106-2.922.122-3.16.108-.113.354-.181.499-.238.654-.254 1.132-.695 1.192-1.42.04-.48-.117-.91-.439-1.267a1.58 1.58 0 0 0-1.117-.524c-.387-.023-1.184.343-1.427.07-.118-.132-.165-.359-.226-.525-.247-.685-.765-1.082-1.493-1.177a2.3 2.3 0 0 0-.35-.019M38.701 9.373c.244-.018.536-.014.728.16.18.164.188.426.128.644-.145.528-.608 1.16-.887 1.64-.446.768-.862 1.558-1.296 2.335-.268.48-.592.972-.806 1.475a1.2 1.2 0 0 0-.112.503c.006.152.06.266.177.366.166.142.385.252.61.222.15-.02.27-.098.364-.213.317-.395.506-.945.738-1.392l1.6-3.089c.19-.37.356-.822.622-1.141.14-.17.271-.25.495-.268.178-.015.35.03.487.145a.62.62 0 0 1 .206.563c-.062.396-.415.878-.604 1.24l-1.453 2.849c-.259.514-.563 1.039-.772 1.574-.048.125-.097.264-.079.4.022.158.14.297.267.386.144.1.339.167.515.129.203-.045.345-.191.458-.354.259-.37.43-.856.62-1.265l1.24-2.63c.234-.498.447-1.084.759-1.538.112-.163.232-.293.439-.325.209-.031.42.056.578.187.131.109.23.236.235.41.015.448-.805 2-1.028 2.498l-.88 1.965c-.431.968-.8 1.94-1.527 2.741-.717.79-1.532 1.124-2.516 1.476-.207.075-.526.148-.702.274-.348.248-.59.708-.794 1.07-.157.28-.357.582-.455.887-.145.449-.05 1.821-.05 2.363v6.996l.003 2.139c0 .419.026.857-.02 1.273a.73.73 0 0 1-.191.432c-.34.33-1.596.214-2.078.211l-3.285-.004c.189-.502.423-.996.67-1.474.426-.044.864-.025 1.293-.025l2.12.001v-9.143c-.275.65-.624 1.286-.94 1.919a350 350 0 0 0-1.668 3.367 299 299 0 0 1-2.023 4.092c-.286.568-.54 1.166-.866 1.713a1.65 1.65 0 0 1-.513.564c-.3.192-.664.26-1.014.19a1.27 1.27 0 0 1-.825-.577 1.18 1.18 0 0 1-.135-.992c.169-.561.524-1.103.805-1.617l1.336-2.445c1.618-2.962 3.249-5.923 4.814-8.912.37-.704 1.205-2.04 1.406-2.704.219-.722-.241-1.587-.376-2.298a4.2 4.2 0 0 1 .35-2.664c.213-.421.471-.824.71-1.232l1.233-2.13.996-1.727c.197-.34.383-.707.621-1.02a.9.9 0 0 1 .272-.22"/><path fill="#fff" d="M16.303 8.093c1.143-.06 2.31-.009 3.456-.008l6.564.003 5.956-.003c.966 0 1.97-.055 2.933.006.197.012.42.067.57.203.13.119.186.328.211.495.051.339.021.71.02 1.053l-.008 1.947c-.477.766-.999 1.511-1.5 2.263.044-.505.014-1.03.014-1.536V9.663c-5.712.005-11.43.057-17.14-.003-.058 2.336-.005 4.687-.005 7.025l.003 12.92 7.697-.002 2.384-.005c.44 0 .91-.031 1.348.024-.163.503-.471 1.008-.711 1.481l-7.935-.017h-2.389c-.544 0-1.111-.025-1.65.054a2.6 2.6 0 0 0-1.265.546c-.444.355-.768.868-.814 1.438-.04.501.158.985.484 1.364.306.355.776.624 1.24.711.679.128 1.687.037 2.401.04l4.855.004c.902 0 1.822-.037 2.722.028-.16.467-.306.973-.397 1.457-.814-.072-1.681-.013-2.502-.013l-4.861-.001c-.847.002-1.81.099-2.635-.078-.58-.124-1.124-.426-1.577-.798-.731-.6-1.191-1.526-1.266-2.456-.042-.52-.012-1.06-.01-1.581l.002-2.533v-8.76l-.002-6.074c-.001-.781-.074-2.155.033-2.892.1-.732.413-1.419.903-1.977a4.25 4.25 0 0 1 2.871-1.472m-.452 1.634c-.804.326-1.394.735-1.737 1.55-.118.282-.15.629-.16.932-.05 1.486-.004 2.991-.003 4.48l.002 8.593v3.81c0 .432-.08 1.02.015 1.432l.034.012.054-.035c.606-.448 1.12-.693 1.864-.848-.058-2.124-.007-4.264-.005-6.389.003-2.388-.039-4.782-.012-7.17q.025-2.343.01-4.687c0-.376.062-1.356-.01-1.665zM53.175 28.991V18.363h-4.18v-1.982h10.701v1.982h-4.18v10.628zm12.939 0v-1.945l-.127-.415v-3.404q0-.99-.594-1.531-.594-.56-1.801-.559a5.3 5.3 0 0 0-1.604.252 3.9 3.9 0 0 0-1.315.703l-.882-1.64q.774-.594 1.837-.882a8.2 8.2 0 0 1 2.234-.306q2.09 0 3.224 1.009 1.153.99 1.153 3.08v5.638zm-3.027.126q-1.08 0-1.891-.36-.81-.378-1.261-1.027a2.7 2.7 0 0 1-.433-1.495q0-.81.379-1.459.396-.648 1.279-1.027t2.342-.378h2.792v1.495h-2.63q-1.153 0-1.55.378-.396.36-.396.901 0 .613.486.973.487.36 1.352.36.828 0 1.477-.378.666-.379.954-1.117l.379 1.351q-.324.846-1.171 1.315-.829.468-2.108.468m10.474 0q-1.208 0-2.324-.306-1.1-.324-1.747-.774l.864-1.712q.65.415 1.55.685t1.8.27q1.064 0 1.532-.288.486-.288.486-.775a.65.65 0 0 0-.324-.594q-.324-.216-.846-.325a18 18 0 0 0-1.171-.198q-.63-.09-1.28-.234a5 5 0 0 1-1.152-.45 2.5 2.5 0 0 1-.847-.81q-.324-.506-.324-1.334 0-.918.522-1.585.523-.685 1.46-1.045.954-.378 2.251-.378a9.2 9.2 0 0 1 1.964.216q.99.216 1.639.612l-.865 1.712a4.4 4.4 0 0 0-1.387-.559 6 6 0 0 0-1.369-.162q-1.026 0-1.531.306-.486.307-.486.775 0 .432.324.648t.847.343 1.152.216q.65.072 1.28.234t1.152.45q.54.27.865.775t.324 1.315q0 .9-.54 1.567-.523.667-1.495 1.045-.974.36-2.324.36m9.379 0q-1.586 0-2.45-.81-.865-.829-.865-2.432v-8.629h2.252v8.575q0 .684.342 1.063.36.378.991.378.757 0 1.26-.396l.631 1.603a2.65 2.65 0 0 1-.972.486 4.4 4.4 0 0 1-1.19.162m-4.9-7.872v-1.801h6.413v1.801zm12.578 7.872q-1.603 0-2.81-.63a4.8 4.8 0 0 1-1.855-1.765q-.65-1.118-.649-2.54 0-1.442.63-2.54a4.65 4.65 0 0 1 1.766-1.748q1.135-.63 2.576-.63 1.405 0 2.504.612a4.43 4.43 0 0 1 1.73 1.73q.63 1.116.63 2.63 0 .144-.018.324 0 .18-.018.342h-8.016v-1.495h6.827l-.883.468q.018-.828-.342-1.459-.36-.63-.991-.99-.613-.36-1.423-.36-.828 0-1.46.36-.611.36-.972 1.008-.342.63-.342 1.495v.36q0 .865.396 1.532.396.666 1.117 1.027.72.36 1.657.36a4 4 0 0 0 1.46-.252 3.1 3.1 0 0 0 1.152-.793l1.207 1.387a4.3 4.3 0 0 1-1.64 1.171q-.972.396-2.233.396m10.468 0q-1.478 0-2.63-.63a4.85 4.85 0 0 1-1.82-1.765q-.666-1.118-.666-2.54 0-1.442.666-2.54a4.7 4.7 0 0 1 1.82-1.748q1.152-.63 2.63-.63 1.494 0 2.648.63 1.17.63 1.819 1.73.666 1.098.667 2.558 0 1.422-.667 2.54a4.7 4.7 0 0 1-1.819 1.765q-1.154.63-2.648.63m0-1.927q.828 0 1.477-.36.648-.36 1.008-1.045.38-.685.379-1.603 0-.938-.379-1.604a2.5 2.5 0 0 0-1.008-1.044 2.96 2.96 0 0 0-1.459-.36 3 3 0 0 0-1.478.36q-.63.36-1.008 1.044-.378.668-.379 1.604 0 .918.379 1.603.378.684 1.008 1.045.649.36 1.46.36m6.746 1.801v-9.62h2.144v2.649l-.252-.775a3.05 3.05 0 0 1 1.351-1.477q.936-.504 2.324-.504v2.143a1.1 1.1 0 0 0-.271-.036 2 2 0 0 0-.252-.018q-1.279 0-2.035.757-.757.737-.757 2.216v4.665zm12.177 0v-1.945l-.126-.415v-3.404q0-.99-.595-1.531-.594-.56-1.801-.559-.81 0-1.603.252a3.9 3.9 0 0 0-1.315.703l-.883-1.64q.775-.594 1.837-.882a8.2 8.2 0 0 1 2.234-.306q2.09 0 3.225 1.009 1.153.99 1.153 3.08v5.638zm-3.026.126q-1.081 0-1.892-.36-.81-.378-1.261-1.027a2.7 2.7 0 0 1-.432-1.495q0-.81.378-1.459.397-.648 1.279-1.027.883-.378 2.342-.378h2.792v1.495h-2.63q-1.153 0-1.549.378-.396.36-.396.901 0 .613.486.973t1.351.36q.829 0 1.477-.378.666-.379.955-1.117l.378 1.351q-.324.846-1.171 1.315-.829.468-2.107.468m19.642-9.853q1.153 0 2.036.45.9.45 1.405 1.387.504.919.504 2.378v5.512h-2.251v-5.224q0-1.278-.559-1.91-.558-.63-1.603-.63-.738 0-1.315.325a2.27 2.27 0 0 0-.883.954q-.306.63-.306 1.604v4.881h-2.252v-5.224q0-1.278-.558-1.91-.559-.63-1.603-.63-.74 0-1.315.325a2.27 2.27 0 0 0-.883.954q-.306.63-.306 1.604v4.881h-2.252v-9.62h2.144v2.559l-.379-.757a3.3 3.3 0 0 1 1.405-1.423q.937-.486 2.126-.486 1.351 0 2.342.666 1.008.667 1.333 2.018l-.883-.306q.469-1.081 1.549-1.73 1.082-.648 2.504-.648m12.209 9.727v-1.945l-.126-.415v-3.404q0-.99-.595-1.531-.594-.56-1.801-.559-.81 0-1.603.252a3.9 3.9 0 0 0-1.315.703l-.883-1.64a5.2 5.2 0 0 1 1.838-.882 8.2 8.2 0 0 1 2.233-.306q2.09 0 3.225 1.009 1.153.99 1.153 3.08v5.638zm-3.026.126q-1.081 0-1.892-.36-.81-.378-1.261-1.027a2.7 2.7 0 0 1-.432-1.495q0-.81.378-1.459.397-.648 1.279-1.027.883-.378 2.342-.378h2.792v1.495h-2.63q-1.153 0-1.549.378-.396.36-.396.901 0 .613.486.973.487.36 1.351.36.828 0 1.477-.378.667-.379.955-1.117l.378 1.351q-.324.846-1.171 1.315-.828.468-2.107.468"/></svg>