<svg aria-hidden="true" style="position: absolute; width: 0; height: 0; overflow: hidden;" version="1.1" xmlns="http://www.w3.org/2000/svg" xmlns:xlink="http://www.w3.org/1999/xlink">
<defs>
<symbol id="icon-big-chevron-up-small" viewBox="0 0 32 32">
<path stroke="currentColor" fill="none" stroke-linejoin="round" stroke-linecap="round" stroke-miterlimit="4" stroke-width="2" d="M7 20.5l9-9 9 9"></path>
</symbol>
<symbol id="icon-big-chevron-up-medium" viewBox="0 0 32 32">
<path stroke="currentColor" fill="none" stroke-linejoin="round" stroke-linecap="round" stroke-miterlimit="4" stroke-width="1.3333" d="M7 20.5l9-9 9 9"></path>
</symbol>
<symbol id="icon-big-chevron-up-large" viewBox="0 0 32 32">
<path stroke="currentColor" fill="none" stroke-linejoin="round" stroke-linecap="round" stroke-miterlimit="4" stroke-width="1" d="M7 20.5l9-9 9 9"></path>
</symbol>
<symbol id="icon-chevron-up-small" viewBox="0 0 32 32">
<path stroke="currentColor" fill="none" stroke-linejoin="round" stroke-linecap="round" stroke-miterlimit="4" stroke-width="2" d="M10 19l6-6 6 6"></path>
</symbol>
<symbol id="icon-chevron-up-medium" viewBox="0 0 32 32">
<path stroke="currentColor" fill="none" stroke-linejoin="round" stroke-linecap="round" stroke-miterlimit="4" stroke-width="1.3333" d="M10 19l6-6 6 6"></path>
</symbol>
<symbol id="icon-chevron-up-large" viewBox="0 0 32 32">
<path stroke="currentColor" fill="none" stroke-linejoin="round" stroke-linecap="round" stroke-miterlimit="4" stroke-width="1" d="M10 19l6-6 6 6"></path>
</symbol>
<symbol id="icon-chevron-down-small" viewBox="0 0 32 32">
<path stroke="currentColor" fill="none" stroke-linejoin="round" stroke-linecap="round" stroke-miterlimit="4" stroke-width="2" d="M22 13l-6 6-6-6"></path>
</symbol>
<symbol id="icon-chevron-down-medium" viewBox="0 0 32 32">
<path stroke="currentColor" fill="none" stroke-linejoin="round" stroke-linecap="round" stroke-miterlimit="4" stroke-width="1.3333" d="M22 13l-6 6-6-6"></path>
</symbol>
<symbol id="icon-chevron-down-large" viewBox="0 0 32 32">
<path stroke="currentColor" fill="none" stroke-linejoin="round" stroke-linecap="round" stroke-miterlimit="4" stroke-width="1" d="M22 13l-6 6-6-6"></path>
</symbol>
<symbol id="icon-big-chevron-down-small" viewBox="0 0 32 32">
<path stroke="currentColor" fill="none" stroke-linejoin="round" stroke-linecap="round" stroke-miterlimit="4" stroke-width="2" d="M25 11.5l-9 9-9-9"></path>
</symbol>
<symbol id="icon-big-chevron-down-medium" viewBox="0 0 32 32">
<path stroke="currentColor" fill="none" stroke-linejoin="round" stroke-linecap="round" stroke-miterlimit="4" stroke-width="1.3333" d="M25 11.5l-9 9-9-9"></path>
</symbol>
<symbol id="icon-big-chevron-down-large" viewBox="0 0 32 32">
<path stroke="currentColor" fill="none" stroke-linejoin="round" stroke-linecap="round" stroke-miterlimit="4" stroke-width="1" d="M25 11.5l-9 9-9-9"></path>
</symbol>
<symbol id="icon-short-arrow-right-small" viewBox="0 0 32 32">
<path stroke="currentColor" fill="none" stroke-linejoin="round" stroke-linecap="round" stroke-miterlimit="4" stroke-width="2" d="M10 16.004l12-0M22 16.004l-5.384 5.386M22 16.004l-5.384-5.386"></path>
</symbol>
<symbol id="icon-short-arrow-right-medium" viewBox="0 0 32 32">
<path stroke="currentColor" fill="none" stroke-linejoin="round" stroke-linecap="round" stroke-miterlimit="4" stroke-width="1.3333" d="M10 16.004l12-0M22 16.004l-5.384 5.386M22 16.004l-5.384-5.386"></path>
</symbol>
<symbol id="icon-short-arrow-right-large" viewBox="0 0 32 32">
<path stroke="currentColor" fill="none" stroke-linejoin="round" stroke-linecap="round" stroke-miterlimit="4" stroke-width="1" d="M10 16.004h12M22 16.004l-5.384 5.386M22 16.004l-5.384-5.386"></path>
</symbol>
<symbol id="icon-short-arrow-left-small" viewBox="0 0 32 32">
<path stroke="currentColor" fill="none" stroke-linejoin="round" stroke-linecap="round" stroke-miterlimit="4" stroke-width="2" d="M22 16.004l-12-0M10 16.004l5.384 5.386M10 16.004l5.384-5.386"></path>
</symbol>
<symbol id="icon-short-arrow-left-medium" viewBox="0 0 32 32">
<path stroke="currentColor" fill="none" stroke-linejoin="round" stroke-linecap="round" stroke-miterlimit="4" stroke-width="1.3333" d="M22 16.004l-12-0M10 16.004l5.384 5.386M10 16.004l5.384-5.386"></path>
</symbol>
<symbol id="icon-short-arrow-left-large" viewBox="0 0 32 32">
<path stroke="currentColor" fill="none" stroke-linejoin="round" stroke-linecap="round" stroke-miterlimit="4" stroke-width="1" d="M22 16.004h-12M10 16.004l5.384 5.386M10 16.004l5.384-5.386"></path>
</symbol>
<symbol id="icon-arrow-right-small" viewBox="0 0 32 32">
<path stroke="currentColor" fill="none" stroke-linejoin="round" stroke-linecap="round" stroke-miterlimit="4" stroke-width="2" d="M6 16.004l19.996-0.004M25.996 16l-5.384-5.386M25.996 16l-5.384 5.386"></path>
</symbol>
<symbol id="icon-arrow-right-medium" viewBox="0 0 32 32">
<path stroke="currentColor" fill="none" stroke-linejoin="round" stroke-linecap="round" stroke-miterlimit="4" stroke-width="1.3333" d="M6 16.004l19.996-0.004M25.996 16l-5.384-5.386M25.996 16l-5.384 5.386"></path>
</symbol>
<symbol id="icon-arrow-right-large" viewBox="0 0 32 32">
<path stroke="currentColor" fill="none" stroke-linejoin="round" stroke-linecap="round" stroke-miterlimit="4" stroke-width="1" d="M6 16.004l19.996-0.004M25.996 16l-5.384-5.386M25.996 16l-5.384 5.386"></path>
</symbol>
<symbol id="icon-arrow-left-small" viewBox="0 0 32 32">
<path stroke="currentColor" fill="none" stroke-linejoin="round" stroke-linecap="round" stroke-miterlimit="4" stroke-width="2" d="M25.996 16l-19.996 0.004M6 16.004l5.384 5.386M6 16.004l5.384-5.386"></path>
</symbol>
<symbol id="icon-arrow-left-medium" viewBox="0 0 32 32">
<path stroke="currentColor" fill="none" stroke-linejoin="round" stroke-linecap="round" stroke-miterlimit="4" stroke-width="1.3333" d="M25.997 16l-19.996 0.004M6.001 16.004l5.384 5.386M6.001 16.004l5.384-5.386"></path>
</symbol>
<symbol id="icon-arrow-left-large" viewBox="0 0 32 32">
<path stroke="currentColor" fill="none" stroke-linejoin="round" stroke-linecap="round" stroke-miterlimit="4" stroke-width="1" d="M25.996 16l-19.996 0.004M6 16.004l5.384 5.386M6 16.004l5.384-5.386"></path>
</symbol>
<symbol id="icon-close-small" viewBox="0 0 32 32">
<path stroke="currentColor" fill="none" stroke-linejoin="round" stroke-linecap="round" stroke-miterlimit="4" stroke-width="2" d="M7 7l9 9M16 16l-9 9M16 16l9 9M16 16l9-9"></path>
</symbol>
<symbol id="icon-close-medium" viewBox="0 0 32 32">
<path stroke="currentColor" fill="none" stroke-linejoin="round" stroke-linecap="round" stroke-miterlimit="4" stroke-width="1.3333" d="M7 7l9 9M16 16l-9 9M16 16l9 9M16 16l9-9"></path>
</symbol>
<symbol id="icon-close-large" viewBox="0 0 32 32">
<path stroke="currentColor" fill="none" stroke-linejoin="round" stroke-linecap="round" stroke-miterlimit="4" stroke-width="1" d="M7 7l9 9M16 16l-9 9M16 16l9 9M16 16l9-9"></path>
</symbol>
<symbol id="icon-filter-small" viewBox="0 0 32 32">
<path stroke="currentColor" fill="none" stroke-linejoin="miter" stroke-linecap="butt" stroke-miterlimit="4" stroke-width="2" d="M8.908 7.5l14.184 0c1.054 0 1.908 0.854 1.908 1.908 0 0.487-0.186 0.956-0.521 1.31l-6.402 6.782v4.695c0 1.531-1.599 2.535-2.978 1.871-0.719-0.346-1.176-1.073-1.176-1.871v-4.695l-6.402-6.782c-0.334-0.354-0.521-0.823-0.521-1.31 0-1.054 0.854-1.908 1.908-1.908z"></path>
</symbol>
<symbol id="icon-filter-medium" viewBox="0 0 32 32">
<path stroke="currentColor" fill="none" stroke-linejoin="miter" stroke-linecap="butt" stroke-miterlimit="4" stroke-width="1.3333" d="M8.908 7.5h14.183c1.054 0 1.908 0.854 1.908 1.908 0 0.487-0.186 0.956-0.521 1.31l-6.402 6.782v4.695c0 1.53-1.599 2.535-2.978 1.871-0.719-0.346-1.176-1.073-1.176-1.871v-4.695l-6.402-6.782c-0.334-0.354-0.521-0.823-0.521-1.31 0-1.054 0.854-1.908 1.908-1.908z"></path>
</symbol>
<symbol id="icon-filter-large" viewBox="0 0 32 32">
<path stroke="currentColor" fill="none" stroke-linejoin="miter" stroke-linecap="butt" stroke-miterlimit="4" stroke-width="1" d="M8.908 7.5h14.184c1.054 0 1.908 0.854 1.908 1.908 0 0.487-0.186 0.956-0.521 1.31l-6.402 6.782v4.817c0 1.474-1.54 2.441-2.868 1.802l-0.154-0.074c-0.692-0.333-1.132-1.034-1.132-1.802v-4.743l-6.402-6.782c-0.334-0.354-0.521-0.823-0.521-1.31 0-1.054 0.854-1.908 1.908-1.908z"></path>
</symbol>
<symbol id="icon-clock-small" viewBox="0 0 32 32">
<path stroke="currentColor" fill="none" stroke-linejoin="round" stroke-linecap="round" stroke-miterlimit="4" stroke-width="2" d="M16 10.154v6.577l4.385 3.654M25.5 16c0 5.247-4.253 9.5-9.5 9.5s-9.5-4.253-9.5-9.5c0-5.247 4.253-9.5 9.5-9.5s9.5 4.253 9.5 9.5z"></path>
</symbol>
<symbol id="icon-clock-medium" viewBox="0 0 32 32">
<path stroke="currentColor" fill="none" stroke-linejoin="round" stroke-linecap="round" stroke-miterlimit="4" stroke-width="1.3333" d="M16 10.154v6.577l4.385 3.654M25.5 16c0 5.247-4.253 9.5-9.5 9.5s-9.5-4.253-9.5-9.5c0-5.247 4.253-9.5 9.5-9.5s9.5 4.253 9.5 9.5z"></path>
</symbol>
<symbol id="icon-clock-large" viewBox="0 0 32 32">
<path stroke="currentColor" fill="none" stroke-linejoin="round" stroke-linecap="round" stroke-miterlimit="4" stroke-width="1" d="M16 10.154v6.577l4.385 3.654M25.5 16c0 5.247-4.253 9.5-9.5 9.5s-9.5-4.253-9.5-9.5c0-5.247 4.253-9.5 9.5-9.5s9.5 4.253 9.5 9.5z"></path>
</symbol>
<symbol id="icon-bookmark-small" viewBox="0 0 32 32">
<path stroke="currentColor" fill="none" stroke-linejoin="round" stroke-linecap="round" stroke-miterlimit="4" stroke-width="2" d="M15.996 5c1.996 0 3.797 0.228 5.090 0.455 0.992 0.174 1.748 0.843 1.992 1.756 0.46 1.721 0.993 4.643 0.914 8.77-0.088 4.571-0.836 7.682-1.455 9.5-0.070 0.204-0.194 0.281-0.33 0.303-0.157 0.025-0.386-0.024-0.588-0.23-0.8-0.821-1.8-1.798-2.742-2.576-0.47-0.388-0.948-0.746-1.395-1.012-0.406-0.241-0.942-0.504-1.486-0.504-0.531 0-1.085 0.253-1.514 0.488-0.476 0.26-0.999 0.614-1.523 1-1.052 0.775-2.192 1.751-3.111 2.57-0.222 0.198-0.462 0.228-0.627 0.185-0.147-0.038-0.28-0.142-0.332-0.373-0.421-1.866-0.889-4.928-0.889-9.332 0-4.325 0.506-7.192 0.936-8.846 0.228-0.876 0.953-1.518 1.918-1.689 1.296-0.23 3.119-0.465 5.143-0.465z"></path>
</symbol>
<symbol id="icon-bookmark-medium" viewBox="0 0 32 32">
<path stroke="currentColor" fill="none" stroke-linejoin="round" stroke-linecap="round" stroke-miterlimit="4" stroke-width="1.3333" d="M15.996 4.667c2.021 0 3.842 0.232 5.148 0.461 1.109 0.195 1.975 0.948 2.255 1.996 0.467 1.75 1.006 4.704 0.926 8.863-0.088 4.606-0.843 7.751-1.473 9.602-0.11 0.324-0.339 0.485-0.594 0.525-0.269 0.042-0.605-0.048-0.879-0.328-0.797-0.818-1.788-1.785-2.716-2.552-0.463-0.382-0.926-0.727-1.351-0.98-0.399-0.237-0.868-0.458-1.316-0.458-0.44 0-0.927 0.215-1.353 0.448-0.457 0.25-0.967 0.593-1.486 0.975-1.039 0.766-2.172 1.734-3.089 2.551-0.303 0.27-0.657 0.331-0.934 0.259-0.264-0.069-0.493-0.266-0.573-0.621-0.427-1.891-0.896-4.978-0.896-9.406 0-4.351 0.509-7.247 0.947-8.93 0.264-1.014 1.1-1.742 2.181-1.934 1.31-0.232 3.153-0.47 5.202-0.47z"></path>
</symbol>
<symbol id="icon-bookmark-large" viewBox="0 0 32 32">
<path stroke="currentColor" fill="none" stroke-linejoin="round" stroke-linecap="round" stroke-miterlimit="4" stroke-width="1" d="M15.996 4.5c2.033 0 3.864 0.233 5.177 0.463 1.168 0.205 2.090 1.002 2.388 2.118 0.471 1.764 1.012 4.734 0.932 8.909-0.089 4.623-0.845 7.785-1.48 9.652-0.131 0.385-0.413 0.586-0.727 0.636-0.325 0.051-0.714-0.060-1.023-0.377-0.795-0.816-1.781-1.778-2.702-2.539-0.46-0.38-0.916-0.72-1.331-0.967-0.395-0.235-0.831-0.433-1.231-0.434-0.394 0-0.849 0.195-1.273 0.427-0.448 0.245-0.95 0.583-1.466 0.963-1.033 0.762-2.161 1.725-3.076 2.541-0.343 0.306-0.754 0.382-1.087 0.296-0.324-0.084-0.599-0.328-0.693-0.746-0.429-1.904-0.9-5.003-0.9-9.442 0-4.364 0.511-7.273 0.952-8.971 0.281-1.083 1.174-1.855 2.313-2.057 1.316-0.233 3.17-0.473 5.23-0.473z"></path>
</symbol>
<symbol id="icon-bin-small" viewBox="0 0 32 32">
<path stroke="currentColor" fill="none" stroke-linejoin="round" stroke-linecap="round" stroke-miterlimit="4" stroke-width="2" d="M16 21.846v-8.769M6.5 9.423h2.192M25.5 9.423h-2.192M19.654 9.423h-7.308M19.654 9.423v-1.462c0-0.807-0.654-1.462-1.462-1.462h-4.385c-0.807 0-1.462 0.654-1.462 1.462v1.462M19.654 9.423h3.654M12.346 9.423h-3.654M23.308 9.423v13.154c0 1.614-1.309 2.923-2.923 2.923h-8.769c-1.614 0-2.923-1.309-2.923-2.923v-13.154"></path>
</symbol>
<symbol id="icon-bin-medium" viewBox="0 0 32 32">
<path stroke="currentColor" fill="none" stroke-linejoin="round" stroke-linecap="round" stroke-miterlimit="4" stroke-width="1.3333" d="M16 21.846v-8.769M6.5 9.423h2.192M25.5 9.423h-2.192M19.654 9.423h-7.308M19.654 9.423v-1.462c0-0.807-0.654-1.462-1.462-1.462h-4.385c-0.807 0-1.462 0.654-1.462 1.462v1.462M19.654 9.423h3.654M12.346 9.423h-3.654M23.308 9.423v13.154c0 1.614-1.309 2.923-2.923 2.923h-8.769c-1.614 0-2.923-1.309-2.923-2.923v-13.154"></path>
</symbol>
<symbol id="icon-bin-large" viewBox="0 0 32 32">
<path stroke="currentColor" fill="none" stroke-linejoin="round" stroke-linecap="round" stroke-miterlimit="4" stroke-width="1" d="M16 21.846v-8.769M6.5 9.423h2.192M25.5 9.423h-2.192M19.654 9.423h-7.308M19.654 9.423v-1.462c0-0.807-0.654-1.462-1.462-1.462h-4.385c-0.807 0-1.462 0.654-1.462 1.462v1.462M19.654 9.423h3.654M12.346 9.423h-3.654M23.308 9.423v13.154c0 1.614-1.309 2.923-2.923 2.923h-8.769c-1.614 0-2.923-1.309-2.923-2.923v-13.154"></path>
</symbol>
<symbol id="icon-burger-small" viewBox="0 0 32 32">
<path stroke="currentColor" fill="none" stroke-linejoin="miter" stroke-linecap="round" stroke-miterlimit="4" stroke-width="2" d="M7.5 9.5h17M7.5 21.5h17M7.5 15.5h17"></path>
</symbol>
<symbol id="icon-burger-medium" viewBox="0 0 32 32">
<path stroke="currentColor" fill="none" stroke-linejoin="miter" stroke-linecap="round" stroke-miterlimit="4" stroke-width="1.3333" d="M7.5 9.5h17M7.5 21.5h17M7.5 15.5h17"></path>
</symbol>
<symbol id="icon-burger-large" viewBox="0 0 32 32">
<path stroke="currentColor" fill="none" stroke-linejoin="miter" stroke-linecap="round" stroke-miterlimit="4" stroke-width="1" d="M7.5 9.5h17M7.5 21.5h17M7.5 15.5h17"></path>
</symbol>
<symbol id="icon-close-circle-small" viewBox="0 0 32 32">
<path stroke="currentColor" fill="none" stroke-linejoin="miter" stroke-linecap="butt" stroke-miterlimit="4" stroke-width="2" d="M25.5 16c0 5.247-4.253 9.5-9.5 9.5s-9.5-4.253-9.5-9.5c0-5.247 4.253-9.5 9.5-9.5s9.5 4.253 9.5 9.5z"></path>
<path stroke="currentColor" fill="none" stroke-linejoin="miter" stroke-linecap="round" stroke-miterlimit="4" stroke-width="2" d="M19.699 12.346l-3.699 3.699M16 16.045l-3.699 3.699M16 16.045l3.699 3.699M16 16.045l-3.699-3.699"></path>
</symbol>
<symbol id="icon-close-circle-medium" viewBox="0 0 32 32">
<path stroke="currentColor" fill="none" stroke-linejoin="miter" stroke-linecap="butt" stroke-miterlimit="4" stroke-width="1.3333" d="M25.5 16c0 5.247-4.253 9.5-9.5 9.5s-9.5-4.253-9.5-9.5c0-5.247 4.253-9.5 9.5-9.5s9.5 4.253 9.5 9.5z"></path>
<path stroke="currentColor" fill="none" stroke-linejoin="miter" stroke-linecap="round" stroke-miterlimit="4" stroke-width="1.3333" d="M19.698 12.346l-3.699 3.699M15.999 16.046l-3.699 3.699M15.999 16.046l3.699 3.699M15.999 16.046l-3.699-3.699"></path>
</symbol>
<symbol id="icon-close-circle-large" viewBox="0 0 32 32">
<path stroke="currentColor" fill="none" stroke-linejoin="miter" stroke-linecap="butt" stroke-miterlimit="4" stroke-width="1" d="M25.5 16c0 5.247-4.253 9.5-9.5 9.5s-9.5-4.253-9.5-9.5c0-5.247 4.253-9.5 9.5-9.5s9.5 4.253 9.5 9.5z"></path>
<path stroke="currentColor" fill="none" stroke-linejoin="miter" stroke-linecap="round" stroke-miterlimit="4" stroke-width="1" d="M19.699 12.346l-3.699 3.699M16 16.046l-3.699 3.699M16 16.046l3.699 3.699M16 16.046l-3.699-3.699"></path>
</symbol>
<symbol id="icon-logout-small" viewBox="0 0 32 32">
<path stroke="currentColor" fill="none" stroke-linejoin="round" stroke-linecap="round" stroke-miterlimit="4" stroke-width="2" d="M13.077 6.5h-3.654c-1.614 0-2.923 1.309-2.923 2.923v13.154c0 1.614 1.309 2.923 2.923 2.923h3.654M11.5 16h14.615M26.115 16l-4.385 4.385M26.115 16l-4.385-4.385"></path>
</symbol>
<symbol id="icon-logout-medium" viewBox="0 0 32 32">
<path stroke="currentColor" fill="none" stroke-linejoin="round" stroke-linecap="round" stroke-miterlimit="4" stroke-width="1.3333" d="M13.077 6.5h-3.654c-1.614 0-2.923 1.309-2.923 2.923v13.154c0 1.614 1.309 2.923 2.923 2.923h3.654M11.5 16h14.615M26.115 16l-4.385 4.385M26.115 16l-4.385-4.385"></path>
</symbol>
<symbol id="icon-logout-large" viewBox="0 0 32 32">
<path stroke="currentColor" fill="none" stroke-linejoin="round" stroke-linecap="round" stroke-miterlimit="4" stroke-width="1" d="M13.077 6.5h-3.654c-1.614 0-2.923 1.309-2.923 2.923v13.154c0 1.614 1.309 2.923 2.923 2.923h3.654M11.5 16h14.615M26.115 16l-4.385 4.385M26.115 16l-4.385-4.385"></path>
</symbol>
<symbol id="icon-eye-crossed-small" viewBox="0 0 32 32">
<path stroke="currentColor" fill="none" stroke-linejoin="miter" stroke-linecap="round" stroke-miterlimit="4" stroke-width="2" d="M19.214 22.65c-1.086 0.504-2.291 0.833-3.56 0.833-4.779 0-8.654-4.655-8.654-5.838 0-0.67 1.245-2.456 3.194-3.878M23.269 19.516c0.662-0.797 1.039-1.502 1.039-1.871 0-1.183-3.874-5.838-8.654-5.838 2.103 0 3.808 1.691 3.808 3.777M15.654 19.362c-2.103 0-3.808-1.691-3.808-3.777M25 11.807c-2.636-2.181-5.713-3.434-9-3.434-1.185 0-2.342 0.163-3.462 0.473M7 11.807c0.244-0.202 0.492-0.396 0.744-0.582M7 7l16.714 16.875"></path>
</symbol>
<symbol id="icon-eye-crossed-medium" viewBox="0 0 32 32">
<path stroke="currentColor" fill="none" stroke-linejoin="miter" stroke-linecap="round" stroke-miterlimit="4" stroke-width="1.3333" d="M19.214 22.65c-1.086 0.504-2.291 0.833-3.56 0.833-4.779 0-8.654-4.655-8.654-5.838 0-0.67 1.245-2.456 3.194-3.878M23.269 19.516c0.662-0.797 1.038-1.502 1.038-1.871 0-1.183-3.874-5.837-8.654-5.837 2.103 0 3.808 1.691 3.808 3.777M15.654 19.362c-2.103 0-3.808-1.691-3.808-3.777M25 11.807c-2.636-2.181-5.713-3.434-9-3.434-1.185 0-2.342 0.163-3.462 0.473M7 11.807c0.244-0.202 0.492-0.396 0.744-0.582M7 7l16.714 16.875"></path>
</symbol>
<symbol id="icon-eye-crossed-large" viewBox="0 0 32 32">
<path stroke="currentColor" fill="none" stroke-linejoin="miter" stroke-linecap="round" stroke-miterlimit="4" stroke-width="1" d="M19.214 22.65c-1.086 0.504-2.291 0.832-3.56 0.832-4.779 0-8.654-4.655-8.654-5.837 0-0.67 1.245-2.456 3.194-3.878M23.269 19.516c0.662-0.797 1.038-1.502 1.038-1.871 0-1.183-3.874-5.838-8.654-5.838 2.103 0 3.808 1.691 3.808 3.777M15.654 19.362c-2.103 0-3.808-1.691-3.808-3.777M25 11.807c-2.636-2.181-5.713-3.434-9-3.434-1.185 0-2.342 0.163-3.462 0.473M7 11.807c0.244-0.202 0.492-0.396 0.744-0.582M7 7l16.714 16.875"></path>
</symbol>
<symbol id="icon-eye-small" viewBox="0 0 32 32">
<path stroke="currentColor" fill="none" stroke-linejoin="miter" stroke-linecap="round" stroke-miterlimit="4" stroke-width="2" d="M15.654 11.909c-4.779 0-8.654 4.621-8.654 5.795s3.874 5.795 8.654 5.795c4.779 0 8.654-4.621 8.654-5.795s-3.874-5.795-8.654-5.795zM15.654 11.909c-2.103 0-3.808 1.679-3.808 3.75s1.705 3.75 3.808 3.75c2.103 0 3.808-1.679 3.808-3.75s-1.705-3.75-3.808-3.75zM25 11.909c-2.636-2.166-5.713-3.409-9-3.409s-6.364 1.243-9 3.409"></path>
</symbol>
<symbol id="icon-eye-medium" viewBox="0 0 32 32">
<path stroke="currentColor" fill="none" stroke-linejoin="miter" stroke-linecap="round" stroke-miterlimit="4" stroke-width="1.3333" d="M15.654 11.909c-4.779 0-8.654 4.621-8.654 5.795s3.874 5.795 8.654 5.795c4.779 0 8.654-4.621 8.654-5.795s-3.875-5.795-8.654-5.795zM15.654 11.909c-2.103 0-3.808 1.679-3.808 3.75s1.705 3.75 3.808 3.75c2.103 0 3.808-1.679 3.808-3.75s-1.705-3.75-3.808-3.75zM25 11.909c-2.636-2.166-5.713-3.409-9-3.409s-6.364 1.243-9 3.409"></path>
</symbol>
<symbol id="icon-eye-large" viewBox="0 0 32 32">
<path stroke="currentColor" fill="none" stroke-linejoin="miter" stroke-linecap="round" stroke-miterlimit="4" stroke-width="1" d="M15.654 11.909c-4.779 0-8.654 4.621-8.654 5.795s3.874 5.796 8.654 5.796c4.779 0 8.654-4.621 8.654-5.796s-3.875-5.795-8.654-5.795zM15.654 11.909c-2.103 0-3.808 1.679-3.808 3.75s1.705 3.75 3.808 3.75 3.808-1.679 3.808-3.75c0-2.071-1.705-3.75-3.808-3.75zM25 11.909c-2.636-2.166-5.713-3.409-9-3.409s-6.364 1.243-9 3.409"></path>
</symbol>
<symbol id="icon-bookmark-filled-small" viewBox="0 0 32 32">
<path stroke="currentColor" fill="none" stroke-linejoin="round" stroke-linecap="round" stroke-miterlimit="4" stroke-width="1" d="M15.996 4.5c2.033 0 3.865 0.233 5.178 0.463 1.168 0.205 2.089 1.003 2.387 2.119 0.471 1.764 1.012 4.733 0.932 8.908-0.089 4.623-0.845 7.785-1.48 9.652-0.131 0.384-0.412 0.585-0.727 0.635-0.325 0.051-0.714-0.058-1.023-0.375-0.795-0.816-1.782-1.78-2.703-2.541-0.46-0.38-0.916-0.718-1.332-0.965-0.395-0.235-0.83-0.435-1.23-0.435-0.394 0-0.849 0.195-1.273 0.428-0.448 0.245-0.951 0.583-1.467 0.963-1.033 0.761-2.161 1.725-3.076 2.541-0.343 0.305-0.754 0.383-1.086 0.297-0.324-0.084-0.599-0.33-0.693-0.748-0.429-1.904-0.9-5.002-0.9-9.441 0-4.364 0.512-7.273 0.953-8.971 0.281-1.083 1.173-1.855 2.313-2.057 1.316-0.233 3.17-0.473 5.23-0.473z"></path>
</symbol>
<symbol id="icon-bookmark-filled-large" viewBox="0 0 24 24">
<path stroke-linejoin="round" stroke-linecap="round" stroke-miterlimit="4" stroke-width="1" d="M11.997 3.5c1.516 0 2.881 0.174 3.861 0.346 0.832 0.146 1.481 0.711 1.691 1.497 0.351 1.312 0.754 3.528 0.694 6.647-0.066 3.454-0.632 5.813-1.104 7.201-0.083 0.243-0.254 0.363-0.445 0.394-0.202 0.032-0.454-0.036-0.659-0.246-0.598-0.613-1.341-1.339-2.037-1.914-0.347-0.287-0.694-0.546-1.014-0.735-0.299-0.178-0.651-0.344-0.987-0.344-0.33 0-0.695 0.161-1.015 0.336-0.343 0.188-0.725 0.445-1.114 0.732-0.78 0.575-1.629 1.3-2.316 1.913-0.227 0.202-0.493 0.248-0.7 0.194-0.198-0.052-0.369-0.199-0.43-0.466-0.32-1.418-0.672-3.734-0.672-7.055 0-3.263 0.382-5.435 0.71-6.697 0.198-0.761 0.825-1.306 1.636-1.45 0.982-0.174 2.365-0.353 3.901-0.353z"></path>
</symbol>
<symbol id="icon-bookmark-filled-medium" viewBox="0 0 32 32">
<path stroke="currentColor" fill="none" stroke-linejoin="round" stroke-linecap="round" stroke-miterlimit="4" stroke-width="0.6667" d="M15.996 4.333c2.436 0 4.583 0.333 5.902 0.596 0.781 0.156 1.4 0.689 1.629 1.434 0.505 1.644 1.223 4.853 1.131 9.63-0.102 5.313-1.083 8.71-1.759 10.441-0.185 0.475-0.791 0.596-1.201 0.164-0.773-0.815-1.86-1.917-2.901-2.816-0.52-0.449-1.036-0.854-1.501-1.148-0.448-0.284-0.909-0.507-1.301-0.507-0.204 0-0.424 0.059-0.642 0.145-0.222 0.087-0.464 0.21-0.717 0.357-0.506 0.294-1.080 0.698-1.667 1.147-1.174 0.9-2.424 2.001-3.316 2.815-0.453 0.413-1.079 0.226-1.217-0.297-0.471-1.787-1.103-5.144-1.103-10.294 0-5.004 0.671-8.108 1.143-9.674 0.218-0.723 0.82-1.236 1.582-1.389 1.316-0.265 3.479-0.603 5.938-0.603z"></path>
</symbol>
</defs>
</svg>
